Coordinates
version=1
nRows=13
nColumns=36
inDegrees=yes

Units are S.I. units (second, meters, Newtons, ...)
If the header above contains a line with 'inDegrees', this indicates whether rotational values are in degrees (yes) or radians (no).

endheader
time	pelvis_tilt	pelvis_list	pelvis_rotation	pelvis_tx	pelvis_ty	pelvis_tz	hip_flexion_r	hip_adduction_r	hip_rotation_r	knee_angle_r	knee_angle_r_beta	ankle_angle_r	subtalar_angle_r	mtp_angle_r	hip_flexion_l	hip_adduction_l	hip_rotation_l	knee_angle_l	knee_angle_l_beta	ankle_angle_l	subtalar_angle_l	mtp_angle_l	lumbar_extension	lumbar_bending	lumbar_rotation	arm_flex_r	arm_add_r	arm_rot_r	elbow_flex_r	pro_sup_r	arm_flex_l	arm_add_l	arm_rot_l	elbow_flex_l	pro_sup_l
      1.45000000	     -7.67141294	     -0.64092170	     -1.47409834	      0.74384491	      1.24590485	      0.06199951	      4.46682587	      1.54069626	      6.34205203	      0.55241631	      0.00964148	      6.95226539	     -9.34159517	     -7.49999987	      4.64168515	     -0.08823694	      5.69818938	      0.32335632	      0.00564363	      4.68624837	     -5.65532753	     -7.49999987	      7.06052505	     -0.78643770	      2.97019693	      1.41725753	     -7.15951579	     11.56237039	     15.30824832	     95.65328064	      1.19229734	     -8.27470286	     18.54837236	     13.80648934	     90.79052351
      1.46666670	     -7.72129186	     -0.63514970	     -1.47827989	      0.74398234	      1.24613366	      0.06193165	      4.53551707	      1.53362129	      6.41992852	      0.55808480	      0.00974042	      6.83882101	     -9.55902803	     -7.49999987	      4.69703262	     -0.08051303	      5.79057158	      0.32457749	      0.00566495	      4.69498320	     -5.71823596	     -7.49999987	      7.11413193	     -0.78195864	      2.88844951	      1.55072357	     -7.13736873	     12.50856888	     14.96465967	     93.95403141	      1.27846897	     -8.20295951	     19.03783521	     13.49284884	     89.20569778
      1.48333330	     -7.62514736	     -0.63623673	     -1.42701570	      0.74386329	      1.24590978	      0.06181728	      4.42588100	      1.52370533	      6.28578801	      0.54374369	      0.00949012	      6.89608089	     -9.45939603	     -7.49999987	      4.58749948	     -0.06471133	      5.89811724	      0.32578160	      0.00568596	      4.71111434	     -5.59363151	     -7.49999987	      6.87406606	     -0.75585864	      2.81937952	      1.49797554	     -7.18553765	     12.57830334	     15.13319788	     92.51153888	      1.39979675	     -8.20784790	     18.98099983	     13.75636527	     87.85449757
      1.50000000	     -7.69953262	     -0.63613587	     -1.50193801	      0.74405067	      1.24621614	      0.06193551	      4.54013869	      1.54446616	      6.46024022	      0.56039059	      0.00978066	      6.91548273	     -9.62762631	     -7.49999987	      4.66745782	     -0.07809415	      5.94355507	      0.32786216	      0.00572227	      4.72949962	     -5.67498212	     -7.49999987	      6.99399549	     -0.76096586	      2.72349354	      1.75144568	     -7.25910143	     14.16053099	     14.73704933	     93.23085612	      1.43053017	     -8.29551081	     20.36400371	     13.51059349	     88.41814993
      1.51666670	     -7.78650022	     -0.62659444	     -1.50888242	      0.74347850	      1.24258402	      0.06184111	      4.66010100	      1.53983761	      6.41018855	      0.56629102	      0.00988364	      6.89295345	     -9.56930016	     -7.49999987	      4.77394467	     -0.06553384	      5.91725286	      0.32365771	      0.00564889	      4.72777478	     -5.63421043	     -7.49999987	      7.01105837	     -0.74949580	      2.70403503	      1.70553758	     -7.29550833	     14.12728197	     14.98165657	     93.03215803	      1.40390851	     -8.32496446	     20.33065675	     13.75256982	     88.23854561
      1.53333330	     -7.78533724	     -0.61665602	     -1.52719038	      0.74364568	      1.24305805	      0.06182530	      4.67721627	      1.52988970	      6.37189649	      0.55885083	      0.00975379	      6.90492199	     -9.50393307	     -7.49999987	      4.78071586	     -0.04667623	      5.91661750	      0.32396023	      0.00565417	      4.74483661	     -5.55838692	     -7.49999987	      6.97380843	     -0.74456687	      2.68223687	      1.76743195	     -7.25279087	     13.99831261	     14.79305687	     93.78004115	      1.51018508	     -8.25636603	     20.20796441	     13.52311378	     88.99197318
      1.55000000	     -7.79508234	     -0.62991066	     -1.47964383	      0.74399307	      1.24610137	      0.06195899	      4.69185720	      1.54095406	      6.29609236	      0.55496580	      0.00968598	      6.92093625	     -9.45890303	     -7.49999987	      4.79596870	     -0.05512382	      6.00848320	      0.32166178	      0.00561406	      4.68332981	     -5.61978105	     -7.49999987	      6.88853230	     -0.73149601	      2.58559575	      1.77547945	     -7.21872817	     13.57767477	     14.85707757	     94.61703394	      1.52400474	     -8.24939888	     19.79839362	     13.60833610	     89.85724053
      1.56666670	     -7.88931143	     -0.62688819	     -1.50681377	      0.74411099	      1.24359224	      0.06213026	      4.78942500	      1.55111222	      6.33073299	      0.55548161	      0.00969498	      6.90346507	     -9.52845982	     -7.49999987	      4.90301014	     -0.05449230	      5.98284841	      0.32241685	      0.00562724	      4.66190066	     -5.72399014	     -7.49999987	      7.01314026	     -0.72309851	      2.58734997	      1.68551411	     -7.15847262	     13.16340558	     14.86107739	     93.15789522	      1.42302306	     -8.15127852	     19.15006119	     13.60355279	     88.61630180
      1.58333330	     -7.76663427	     -0.62202013	     -1.46721328	      0.74392052	      1.24351657	      0.06204270	      4.64146680	      1.53116017	      6.23874785	      0.55406242	      0.00967021	      6.98441891	     -9.35705406	     -7.49999987	      4.78720696	     -0.03781486	      5.99301298	      0.31319662	      0.00546631	      4.69013315	     -5.70263282	     -7.49999987	      6.75116844	     -0.71534924	      2.51685016	      1.58034482	     -7.24196627	     13.11455661	     15.25681386	     91.71017705	      1.36309113	     -8.21168069	     18.89161377	     14.02972041	     87.33153708
      1.60000000	     -7.94993079	     -0.62960470	     -1.47928663	      0.74422020	      1.24374198	      0.06205974	      4.82130393	      1.55163972	      6.41083715	      0.55655750	      0.00971376	      6.78903823	     -9.73433944	     -7.49999987	      4.98821886	     -0.05531449	      6.06631454	      0.31559164	      0.00550811	      4.60333185	     -5.87083952	     -7.49999987	      7.04850856	     -0.72638637	      2.44442343	      1.49557643	     -7.23303257	     13.35826916	     15.05719471	     92.24281853	      1.29374321	     -8.17668443	     19.04088440	     13.82788037	     87.75591278
      1.61666670	     -8.05922528	     -0.63556363	     -1.45502769	      0.74418965	      1.24339334	      0.06209662	      4.92604585	      1.56316280	      6.44636115	      0.56902215	      0.00993131	      6.82466405	     -9.73255366	     -7.49999987	      5.11781216	     -0.06855944	      6.05566121	      0.31674054	      0.00552817	      4.62536251	     -5.80569175	     -7.49999987	      7.17006804	     -0.75159456	      2.39526438	      1.36168927	     -7.26950045	     13.54486365	     14.98513227	     93.61518593	      1.27634191	     -8.21950182	     19.12393682	     13.76970719	     88.97999300
      1.63333330	     -8.00455074	     -0.65280315	     -1.39166658	      0.74437571	      1.24379354	      0.06201801	      4.84333420	      1.56969912	      6.29158332	      0.56461522	      0.00985439	      6.92733855	     -9.46592870	     -7.49999987	      5.06093224	     -0.08045458	      6.01092561	      0.31292854	      0.00546163	      4.58350699	     -5.74833136	     -7.49999987	      7.06197967	     -0.73625058	      2.28781279	      1.24602660	     -7.26672258	     13.43629596	     15.04758553	     90.91087809	      1.15231385	     -8.14817700	     18.64191835	     13.85634396	     86.60463694
      1.65000000	     -7.94880027	     -0.64381422	     -1.38488552	      0.74385773	      1.24337605	      0.06169827	      4.77476233	      1.56421776	      6.43020663	      0.55552107	      0.00969567	      6.85039565	     -9.68369221	     -7.49999987	      5.00884297	     -0.06904633	      5.98070165	      0.31446094	      0.00548838	      4.59705791	     -5.79022391	     -7.49999987	      6.92710398	     -0.76977578	      2.27383713	      1.08088703	     -7.34725177	     13.65453755	     15.27509225	     89.02455438	      1.06218672	     -8.17249829	     18.58417549	     14.12481979	     84.94022584
